<?xml version="1.0" standalone="no"?>
<!DOCTYPE svg PUBLIC "-//W3C//DTD SVG 20010904//EN"
 "http://www.w3.org/TR/2001/REC-SVG-20010904/DTD/svg10.dtd">
<svg version="1.0" xmlns="http://www.w3.org/2000/svg"
 width="512.000000pt" height="512.000000pt" viewBox="0 0 512.000000 512.000000"
 preserveAspectRatio="xMidYMid meet">

<g transform="translate(0.000000,512.000000) scale(0.100000,-0.100000)"
fill="#000000" stroke="none">
<path d="M1463 4500 c-58 -12 -112 -42 -155 -87 -41 -42 -77 -114 -78 -153 0
-14 -4 -31 -8 -37 -6 -10 -139 -13 -564 -15 -544 -3 -557 -3 -584 -24 -15 -11
-37 -33 -48 -48 l-21 -27 0 -1699 0 -1699 21 -27 c11 -15 33 -37 48 -48 27
-21 37 -21 817 -24 875 -3 834 -6 882 62 22 31 22 35 25 434 l3 402 384 0 385
0 0 -299 0 -299 -172 -4 c-160 -3 -175 -5 -204 -25 -47 -33 -68 -72 -68 -123
0 -51 21 -90 68 -123 l31 -22 938 -3 939 -2 39 22 c43 24 79 85 79 132 0 42
-38 101 -80 125 -34 19 -53 21 -204 21 l-166 0 0 300 0 299 563 3 562 3 57 28
c64 32 111 80 142 146 l21 46 0 1275 0 1275 -21 46 c-31 66 -78 114 -142 146
l-57 28 -1695 1 c-932 1 -1714 -2 -1737 -6z m3357 -1490 l0 -1200 -1650 0
-1650 0 0 1200 0 1200 1650 0 1650 0 0 -1200z m-3833 -1858 c43 -30 66 -85 60
-138 -9 -84 -80 -141 -163 -131 -192 21 -166 310 27 294 26 -2 60 -13 76 -25z"/>
</g>
</svg>
